<?xml version="1.0" standalone="no"?><!DOCTYPE svg PUBLIC "-//W3C//DTD SVG 1.1//EN" "http://www.w3.org/Graphics/SVG/1.1/DTD/svg11.dtd"><svg t="1626318906301" class="icon" viewBox="0 0 1024 1024" version="1.1" xmlns="http://www.w3.org/2000/svg" p-id="585" xmlns:xlink="http://www.w3.org/1999/xlink" width="200" height="200"><defs><style type="text/css"></style></defs><path d="M227.527097 460.576843c-28.58499 26.785991-29.98399 71.561976-3.297999 100.146965 1.1 1.1 2.098999 2.198999 3.297999 3.29799899L688.08194 1002.589657C702.773935 1016.381653 722.263928 1024.07765 742.452921 1023.97765c41.377986 1 75.659974-31.682989 76.759974-73.060975-0.3-19.389993-8.395997-37.879987-22.488992-51.172983L390.441042 511.74982501 796.723903 124.855957c14.19299499-13.392995 22.388992-32.182989 22.487992-51.772982-1.099-41.377986-35.379988-74.059975-76.758974-73.059975-20.188993-0.1-39.678986 7.594997-54.369981 21.387993l-460.555843 439.16585z" p-id="586"></path></svg>