<?xml version="1.0" standalone="no"?><!DOCTYPE svg PUBLIC "-//W3C//DTD SVG 1.1//EN" "http://www.w3.org/Graphics/SVG/1.1/DTD/svg11.dtd"><svg t="1626309683662" class="icon" viewBox="0 0 1024 1024" version="1.1" xmlns="http://www.w3.org/2000/svg" p-id="2631" xmlns:xlink="http://www.w3.org/1999/xlink" width="200" height="200"><defs><style type="text/css"></style></defs><path d="M796.472804 563.422648c28.584795-26.785752 29.984051-71.561935 3.298246-100.146731-1.099415-1.099415-2.098884-2.19883-3.298246-3.298246L335.91778 21.410951C321.225595 7.618288 301.735962-0.077619 281.546701 0.022328 240.16871-0.97714 205.886945 31.705475 204.78753 73.083466c0.299841 19.389686 8.395534 37.879851 22.488038 51.17278L633.55946 512.249867 227.275568 899.144073C213.083117 912.536949 204.887477 931.326954 204.78753 950.916534c1.099415 41.37799 35.38118 74.060606 76.759171 73.061138 20.189261 0.099947 39.678894-7.59596 54.371079-21.388623L796.472804 563.422648z" p-id="2632"></path></svg>